<svg version="1.1" id="Layer_1" xmlns="http://www.w3.org/2000/svg" xmlns:xlink="http://www.w3.org/1999/xlink" x="0px" y="0px"
	 width="100%" viewBox="0 0 200 200" enable-background="new 0 0 200 200" xml:space="preserve">
<path fill="#FEFEFE" opacity="1.000000" stroke="none" 
	d="
M119.000000,201.000000 
	C79.357826,201.000000 40.215649,201.000000 1.036737,201.000000 
	C1.036737,134.399536 1.036737,67.799034 1.036737,1.099268 
	C67.558670,1.099268 134.117538,1.099268 200.838196,1.099268 
	C200.838196,67.666351 200.838196,134.333145 200.838196,201.000000 
	C173.799316,201.000000 146.649658,201.000000 119.000000,201.000000 
M40.690033,119.557808 
	C40.464699,119.779770 40.202877,119.943344 39.124180,120.118439 
	C37.050327,120.556038 34.735416,121.819496 32.942078,121.296043 
	C22.001257,118.102554 14.601573,123.153496 14.830686,134.030258 
	C15.007829,142.439804 21.640368,146.521576 29.289118,143.032318 
	C30.241856,142.597717 31.528479,142.833633 32.658066,142.859680 
	C35.960835,142.935822 39.671875,144.098969 42.491188,142.984711 
	C52.822704,138.901382 54.088295,123.578827 45.164299,114.781036 
	C37.731602,107.453453 26.158125,106.240311 16.044935,111.728714 
	C8.158024,116.008926 3.365453,126.708359 5.135305,136.084503 
	C7.002279,145.975159 15.581487,153.825745 25.773785,154.970123 
	C35.087936,156.015915 44.577435,151.830811 47.744781,144.733414 
	C44.984848,145.238785 42.262760,145.060928 40.345020,146.217163 
	C34.933292,149.479980 29.309114,149.682343 23.516243,148.279251 
	C16.399551,146.555542 11.628793,140.295715 11.145020,132.579971 
	C10.723258,125.853226 15.083953,118.243362 20.738207,115.838860 
	C28.144861,112.689148 36.033440,113.989677 40.690033,119.557808 
M145.136444,37.275600 
	C140.194427,37.275600 135.252411,37.275600 130.267761,37.275600 
	C130.267761,57.355892 130.267761,76.785744 130.267761,96.444031 
	C134.569656,96.444031 138.634430,96.444031 143.187714,96.444031 
	C143.187714,82.066963 143.187714,67.961517 143.187714,53.856071 
	C143.415665,53.838417 143.643600,53.820763 143.871552,53.803108 
	C148.609421,68.085991 153.347290,82.368866 158.109177,96.724167 
	C159.810974,96.724167 161.176147,96.518578 162.456390,96.761192 
	C167.017914,97.625626 169.010376,95.391014 170.059219,91.249634 
	C171.157303,86.913956 172.631516,82.665665 174.093613,78.431755 
	C176.819336,70.538620 179.655380,62.683590 182.445511,54.812702 
	C182.856277,54.872314 183.267059,54.931927 183.677841,54.991539 
	C183.677841,68.825157 183.677841,82.658783 183.677841,96.452087 
	C188.317566,96.452087 192.257278,96.452087 196.340347,96.452087 
	C196.340347,76.647888 196.340347,57.118122 196.340347,37.433487 
	C189.817337,37.433487 183.676910,37.433487 177.045441,37.433487 
	C172.626114,49.741333 168.157639,62.186081 163.292725,75.734901 
	C158.935440,63.420624 154.932831,52.366421 151.151978,41.236877 
	C150.240768,38.554604 149.230515,36.682335 145.136444,37.275600 
M23.876339,53.285702 
	C17.676952,67.531059 11.477565,81.776413 5.077253,96.483467 
	C6.895090,96.598442 7.857253,96.700066 8.820682,96.713959 
	C19.054708,96.861488 19.123743,96.886520 23.123209,87.329231 
	C24.132273,84.917938 25.238173,83.678505 28.142040,83.856621 
	C33.122105,84.162079 38.149940,84.179436 43.127781,83.856400 
	C46.398769,83.644135 48.410950,84.868675 48.889397,87.831177 
	C50.222065,96.082909 55.386093,97.958046 62.721779,96.749443 
	C63.973618,96.543205 65.288612,96.720291 66.939888,96.720291 
	C66.665657,95.698799 66.578865,95.067871 66.333527,94.506210 
	C58.566078,76.724060 50.681343,58.991867 43.103897,41.129288 
	C41.853580,38.181862 40.447254,37.412144 37.375282,37.129261 
	C32.197197,36.652431 29.358778,38.344498 27.985128,43.396824 
	C27.123030,46.567654 25.425766,49.511417 23.876339,53.285702 
M118.398720,119.087524 
	C117.496933,116.587349 116.749062,114.014488 115.619217,111.622025 
	C115.153656,110.636192 113.903847,109.427330 112.947388,109.369591 
	C108.838196,109.121529 104.705452,109.263702 100.324371,109.263702 
	C100.324371,124.346931 100.324371,138.905914 100.324371,153.561172 
	C103.631317,153.561172 106.661980,153.561172 110.141502,153.561172 
	C110.141502,143.060013 110.141502,132.938431 110.141502,122.816849 
	C113.854668,132.035248 116.992134,141.277283 119.905388,150.589462 
	C120.755379,153.306473 122.173988,154.067169 124.932098,154.052933 
	C127.650162,154.038864 129.216034,153.394180 130.021576,150.638565 
	C131.512421,145.538696 133.235229,140.504471 134.947327,135.472122 
	C136.337799,131.385101 137.854019,127.340836 139.314468,123.277611 
	C139.659317,123.367302 140.004181,123.457001 140.349045,123.546692 
	C140.349045,133.496658 140.349045,143.446609 140.349045,153.586014 
	C143.758026,153.586014 146.787979,153.586014 149.680084,153.586014 
	C149.680084,138.666367 149.680084,124.111595 149.680084,109.251305 
	C146.133438,109.251305 142.960617,109.511536 139.849594,109.184303 
	C136.105301,108.790474 134.695297,110.401779 133.638306,113.843140 
	C131.238892,121.655151 128.296600,129.300415 125.054329,138.489090 
	C122.640259,131.305313 120.704338,125.544418 118.398720,119.087524 
M107.556168,49.797485 
	C108.916763,50.678741 110.277359,51.559998 111.862579,52.586739 
	C115.060501,49.962017 118.308189,47.296444 121.573502,44.616409 
	C112.659966,34.872696 99.336182,33.199406 85.353928,39.655487 
	C74.376350,44.724205 68.162132,57.888920 70.057678,72.060379 
	C71.827972,85.295448 81.411942,95.183907 94.579590,97.361359 
	C107.341759,99.471764 118.425606,95.533478 122.547249,87.380775 
	C120.882149,86.042290 119.246208,84.642570 117.520493,83.364037 
	C115.822632,82.106133 114.033699,80.971161 112.346962,79.824547 
	C106.343788,85.296860 102.125870,86.887276 97.038742,85.717354 
	C87.035027,83.416725 80.899994,71.892960 84.027786,61.278183 
	C87.198807,50.516701 96.290878,45.782200 107.556168,49.797485 
M184.288910,154.156845 
	C192.370590,151.410599 196.324677,145.764816 196.259369,137.235107 
	C196.219879,132.077744 196.276825,126.919685 196.283890,121.761925 
	C196.289459,117.697159 196.285019,113.632385 196.285019,109.585213 
	C192.646957,109.585213 189.899994,109.585213 186.714981,109.585213 
	C186.714981,116.032112 186.803314,122.163750 186.682571,128.291275 
	C186.607574,132.095810 186.598572,135.970062 185.863556,139.674850 
	C185.049194,143.779510 181.736374,145.729431 177.758820,145.717560 
	C173.794495,145.705734 170.636505,143.832184 169.666901,139.650406 
	C169.186691,137.579178 169.055130,135.392166 169.036133,133.255157 
	C168.965836,125.349365 169.008163,117.442589 169.008163,109.587639 
	C165.318634,109.587639 162.406326,109.587639 159.085800,109.587639 
	C159.085800,118.030663 159.509689,126.178902 158.997330,134.267838 
	C157.938690,150.981018 170.853760,157.348709 184.288910,154.156845 
M65.860588,126.720177 
	C69.377556,119.219002 75.716278,115.197800 81.496536,118.401062 
	C87.548111,121.754715 90.076157,118.457130 93.301521,114.941841 
	C88.787827,108.797913 78.558441,106.537453 70.077248,109.649460 
	C59.565746,113.506462 54.214756,122.058449 54.942497,133.837906 
	C55.591362,144.340698 62.620270,152.313080 73.307632,154.668152 
	C81.810959,156.541946 90.673912,153.350250 94.167442,147.156174 
	C88.887177,141.724991 88.912254,141.890839 82.532005,144.512787 
	C80.362312,145.404449 77.615250,145.757599 75.324089,145.329300 
	C67.602989,143.885971 63.900539,136.809525 65.860588,126.720177 
z"/>
<path fill="#B90707" opacity="1.000000" stroke="none" 
	d="
M145.584641,37.275661 
	C149.230515,36.682335 150.240768,38.554604 151.151978,41.236877 
	C154.932831,52.366421 158.935440,63.420624 163.292725,75.734901 
	C168.157639,62.186081 172.626114,49.741333 177.045441,37.433487 
	C183.676910,37.433487 189.817337,37.433487 196.340347,37.433487 
	C196.340347,57.118122 196.340347,76.647888 196.340347,96.452087 
	C192.257278,96.452087 188.317566,96.452087 183.677841,96.452087 
	C183.677841,82.658783 183.677841,68.825157 183.677841,54.991539 
	C183.267059,54.931927 182.856277,54.872314 182.445511,54.812702 
	C179.655380,62.683590 176.819336,70.538620 174.093613,78.431755 
	C172.631516,82.665665 171.157303,86.913956 170.059219,91.249634 
	C169.010376,95.391014 167.017914,97.625626 162.456390,96.761192 
	C161.176147,96.518578 159.810974,96.724167 158.109177,96.724167 
	C153.347290,82.368866 148.609421,68.085991 143.871552,53.803108 
	C143.643600,53.820763 143.415665,53.838417 143.187714,53.856071 
	C143.187714,67.961517 143.187714,82.066963 143.187714,96.444031 
	C138.634430,96.444031 134.569656,96.444031 130.267761,96.444031 
	C130.267761,76.785744 130.267761,57.355892 130.267761,37.275600 
	C135.252411,37.275600 140.194427,37.275600 145.584641,37.275661 
z"/>
<path fill="#B90606" opacity="1.000000" stroke="none" 
	d="
M23.989773,52.921379 
	C25.425766,49.511417 27.123030,46.567654 27.985128,43.396824 
	C29.358778,38.344498 32.197197,36.652431 37.375282,37.129261 
	C40.447254,37.412144 41.853580,38.181862 43.103897,41.129288 
	C50.681343,58.991867 58.566078,76.724060 66.333527,94.506210 
	C66.578865,95.067871 66.665657,95.698799 66.939888,96.720291 
	C65.288612,96.720291 63.973618,96.543205 62.721779,96.749443 
	C55.386093,97.958046 50.222065,96.082909 48.889397,87.831177 
	C48.410950,84.868675 46.398769,83.644135 43.127781,83.856400 
	C38.149940,84.179436 33.122105,84.162079 28.142040,83.856621 
	C25.238173,83.678505 24.132273,84.917938 23.123209,87.329231 
	C19.123743,96.886520 19.054708,96.861488 8.820682,96.713959 
	C7.857253,96.700066 6.895090,96.598442 5.077253,96.483467 
	C11.477565,81.776413 17.676952,67.531059 23.989773,52.921379 
M34.329475,58.254162 
	C32.487747,62.969746 30.646021,67.685333 28.731049,72.588455 
	C33.552223,72.588455 37.778004,72.588455 42.774349,72.588455 
	C40.379845,66.706726 38.193916,61.337341 35.654945,55.100765 
	C35.034859,56.764427 34.861595,57.229286 34.329475,58.254162 
z"/>
<path fill="#0AB3D0" opacity="1.000000" stroke="none" 
	d="
M118.583572,119.435524 
	C120.704338,125.544418 122.640259,131.305313 125.054329,138.489090 
	C128.296600,129.300415 131.238892,121.655151 133.638306,113.843140 
	C134.695297,110.401779 136.105301,108.790474 139.849594,109.184303 
	C142.960617,109.511536 146.133438,109.251305 149.680084,109.251305 
	C149.680084,124.111595 149.680084,138.666367 149.680084,153.586014 
	C146.787979,153.586014 143.758026,153.586014 140.349045,153.586014 
	C140.349045,143.446609 140.349045,133.496658 140.349045,123.546692 
	C140.004181,123.457001 139.659317,123.367302 139.314468,123.277611 
	C137.854019,127.340836 136.337799,131.385101 134.947327,135.472122 
	C133.235229,140.504471 131.512421,145.538696 130.021576,150.638565 
	C129.216034,153.394180 127.650162,154.038864 124.932098,154.052933 
	C122.173988,154.067169 120.755379,153.306473 119.905388,150.589462 
	C116.992134,141.277283 113.854668,132.035248 110.141502,122.816849 
	C110.141502,132.938431 110.141502,143.060013 110.141502,153.561172 
	C106.661980,153.561172 103.631317,153.561172 100.324371,153.561172 
	C100.324371,138.905914 100.324371,124.346931 100.324371,109.263702 
	C104.705452,109.263702 108.838196,109.121529 112.947388,109.369591 
	C113.903847,109.427330 115.153656,110.636192 115.619217,111.622025 
	C116.749062,114.014488 117.496933,116.587349 118.583572,119.435524 
z"/>
<path fill="#B80505" opacity="1.000000" stroke="none" 
	d="
M107.209152,49.592590 
	C96.290878,45.782200 87.198807,50.516701 84.027786,61.278183 
	C80.899994,71.892960 87.035027,83.416725 97.038742,85.717354 
	C102.125870,86.887276 106.343788,85.296860 112.346962,79.824547 
	C114.033699,80.971161 115.822632,82.106133 117.520493,83.364037 
	C119.246208,84.642570 120.882149,86.042290 122.547249,87.380775 
	C118.425606,95.533478 107.341759,99.471764 94.579590,97.361359 
	C81.411942,95.183907 71.827972,85.295448 70.057678,72.060379 
	C68.162132,57.888920 74.376350,44.724205 85.353928,39.655487 
	C99.336182,33.199406 112.659966,34.872696 121.573502,44.616409 
	C118.308189,47.296444 115.060501,49.962017 111.862579,52.586739 
	C110.277359,51.559998 108.916763,50.678741 107.209152,49.592590 
z"/>
<path fill="#0CB4D0" opacity="1.000000" stroke="none" 
	d="
M40.948895,119.170822 
	C36.033440,113.989677 28.144861,112.689148 20.738207,115.838860 
	C15.083953,118.243362 10.723258,125.853226 11.145020,132.579971 
	C11.628793,140.295715 16.399551,146.555542 23.516243,148.279251 
	C29.309114,149.682343 34.933292,149.479980 40.345020,146.217163 
	C42.262760,145.060928 44.984848,145.238785 47.744781,144.733414 
	C44.577435,151.830811 35.087936,156.015915 25.773785,154.970123 
	C15.581487,153.825745 7.002279,145.975159 5.135305,136.084503 
	C3.365453,126.708359 8.158024,116.008926 16.044935,111.728714 
	C26.158125,106.240311 37.731602,107.453453 45.164299,114.781036 
	C54.088295,123.578827 52.822704,138.901382 42.491188,142.984711 
	C39.671875,144.098969 35.960835,142.935822 32.658066,142.859680 
	C31.528479,142.833633 30.241856,142.597717 29.289118,143.032318 
	C21.640368,146.521576 15.007829,142.439804 14.830686,134.030258 
	C14.601573,123.153496 22.001257,118.102554 32.942078,121.296043 
	C34.735416,121.819496 37.050327,120.556038 39.644642,120.504410 
	C39.432373,126.533020 38.699642,132.175659 37.966908,137.818298 
	C38.406879,138.133209 38.846848,138.448120 39.286816,138.763031 
	C40.697788,137.574631 42.711235,136.664886 43.412628,135.148315 
	C46.067173,129.408569 45.187729,123.970688 40.948895,119.170822 
M27.591085,125.642487 
	C26.272448,126.223717 23.984882,126.596626 23.807177,127.423149 
	C23.129824,130.573608 23.132872,133.870361 22.881718,137.112457 
	C25.202263,137.188019 28.360231,138.217209 29.632975,137.099548 
	C31.251244,135.678482 31.946482,132.499039 31.872528,130.113907 
	C31.825460,128.595978 29.659744,127.143745 27.591085,125.642487 
z"/>
<path fill="#08B3CF" opacity="1.000000" stroke="none" 
	d="
M183.901566,154.296997 
	C170.853760,157.348709 157.938690,150.981018 158.997330,134.267838 
	C159.509689,126.178902 159.085800,118.030663 159.085800,109.587639 
	C162.406326,109.587639 165.318634,109.587639 169.008163,109.587639 
	C169.008163,117.442589 168.965836,125.349365 169.036133,133.255157 
	C169.055130,135.392166 169.186691,137.579178 169.666901,139.650406 
	C170.636505,143.832184 173.794495,145.705734 177.758820,145.717560 
	C181.736374,145.729431 185.049194,143.779510 185.863556,139.674850 
	C186.598572,135.970062 186.607574,132.095810 186.682571,128.291275 
	C186.803314,122.163750 186.714981,116.032112 186.714981,109.585213 
	C189.899994,109.585213 192.646957,109.585213 196.285019,109.585213 
	C196.285019,113.632385 196.289459,117.697159 196.283890,121.761925 
	C196.276825,126.919685 196.219879,132.077744 196.259369,137.235107 
	C196.324677,145.764816 192.370590,151.410599 183.901566,154.296997 
z"/>
<path fill="#09B3CF" opacity="1.000000" stroke="none" 
	d="
M65.720192,127.098557 
	C63.900539,136.809525 67.602989,143.885971 75.324089,145.329300 
	C77.615250,145.757599 80.362312,145.404449 82.532005,144.512787 
	C88.912254,141.890839 88.887177,141.724991 94.167442,147.156174 
	C90.673912,153.350250 81.810959,156.541946 73.307632,154.668152 
	C62.620270,152.313080 55.591362,144.340698 54.942497,133.837906 
	C54.214756,122.058449 59.565746,113.506462 70.077248,109.649460 
	C78.558441,106.537453 88.787827,108.797913 93.301521,114.941841 
	C90.076157,118.457130 87.548111,121.754715 81.496536,118.401062 
	C75.716278,115.197800 69.377556,119.219002 65.720192,127.098557 
z"/>
<path fill="#EDF9FB" opacity="1.000000" stroke="none" 
	d="
M40.819466,119.364319 
	C45.187729,123.970688 46.067173,129.408569 43.412628,135.148315 
	C42.711235,136.664886 40.697788,137.574631 39.286816,138.763031 
	C38.846848,138.448120 38.406879,138.133209 37.966908,137.818298 
	C38.699642,132.175659 39.432373,126.533020 40.034836,120.469452 
	C40.202877,119.943344 40.464699,119.779770 40.819466,119.364319 
z"/>
<path fill="#FAEFEF" opacity="1.000000" stroke="none" 
	d="
M34.508904,57.974152 
	C34.861595,57.229286 35.034859,56.764427 35.654945,55.100765 
	C38.193916,61.337341 40.379845,66.706726 42.774349,72.588455 
	C37.778004,72.588455 33.552223,72.588455 28.731049,72.588455 
	C30.646021,67.685333 32.487747,62.969746 34.508904,57.974152 
z"/>
<path fill="#F7FDFD" opacity="1.000000" stroke="none" 
	d="
M28.017563,125.652267 
	C29.659744,127.143745 31.825460,128.595978 31.872528,130.113907 
	C31.946482,132.499039 31.251244,135.678482 29.632975,137.099548 
	C28.360231,138.217209 25.202263,137.188019 22.881718,137.112457 
	C23.132872,133.870361 23.129824,130.573608 23.807177,127.423149 
	C23.984882,126.596626 26.272448,126.223717 28.017563,125.652267 
z"/>
</svg>